<svg width="32" height="32" viewBox="0 0 32 32" fill="none" xmlns="http://www.w3.org/2000/svg">
<path d="M16.0044 1.88086C22.0023 1.88086 31.9989 4.70456 31.9989 16.9406C31.9989 29.1767 31.9989 32.0004 28.9999 32.0004C26.001 32.0004 22.0023 29.1767 16.0044 29.1767C10.0065 29.1767 6.09284 32.0004 3.0089 32.0004C-0.332941 32.0004 0.00994026 20.7055 0.00994026 16.9406C0.00994026 4.70456 10.0065 1.88086 16.0044 1.88086Z" fill="#E95F28"/>
<path d="M4.01172 16.5293C4.01172 8.50435 9.38286 1.99854 16.0076 1.99854C22.6323 1.99854 28.0034 8.50435 28.0034 16.5293C28.0034 24.5543 22.6323 31.0601 16.0076 31.0601C9.38286 31.0601 4.01172 24.5543 4.01172 16.5293Z" fill="#F2D1A1"/>
<path d="M16.0052 27.2955C13.659 27.2955 12.4315 26.2037 12.2995 26.0785C11.9086 25.7105 11.9086 25.1156 12.2995 24.7476C12.6864 24.3834 13.3121 24.3805 13.703 24.7382C13.754 24.7824 14.5087 25.4131 16.0052 25.4131C17.5237 25.4131 18.2774 24.7636 18.3094 24.7363C18.7073 24.3852 19.3361 24.3956 19.7169 24.7636C20.0958 25.1335 20.0968 25.7152 19.7109 26.0785C19.579 26.2037 18.3514 27.2955 16.0052 27.2955Z" fill="#DF1F32"/>
<path d="M17.0034 22.59H15.004C14.4522 22.59 14.0044 22.1693 14.0044 21.6488C14.0044 21.1283 14.4522 20.7075 15.004 20.7075H17.0034C17.5562 20.7075 18.003 21.1283 18.003 21.6488C18.003 22.1693 17.5562 22.59 17.0034 22.59Z" fill="#C1694F"/>
<path d="M1.07462 21.6484C1.04463 21.3425 1.01064 21.0394 1.01064 20.7072C1.01064 16.001 4.00961 21.2361 4.00961 17.8835C4.00961 14.5298 6.00892 14.1185 8.00823 12.236L11.0072 9.41234C11.0072 9.41234 16.0055 12.236 20.0041 12.236C24.0027 12.236 28.0013 14.1185 28.0013 17.8835C28.0013 21.6484 31.0003 16.001 31.0003 20.7072C31.0003 21.0413 30.9673 21.3406 30.9423 21.6484H31.9909C31.9999 20.2582 31.9999 18.7004 31.9999 16.9422C31.9999 4.70617 22.0034 0 16.0055 0C10.0075 0 0.0109893 4.70617 0.0109893 16.9422C0.0109893 18.0322 -0.017001 19.7527 0.0229852 21.6484H1.07462Z" fill="#E95F28"/>
<path d="M11.005 19.7649C10.4532 19.7649 10.0054 19.3442 10.0054 18.8237V16.9412C10.0054 16.4217 10.4532 16 11.005 16C11.5568 16 12.0047 16.4217 12.0047 16.9412V18.8237C12.0047 19.3442 11.5568 19.7649 11.005 19.7649ZM21.0016 19.7649C20.4488 19.7649 20.0019 19.3442 20.0019 18.8237V16.9412C20.0019 16.4217 20.4488 16 21.0016 16C21.5544 16 22.0012 16.4217 22.0012 16.9412V18.8237C22.0012 19.3442 21.5544 19.7649 21.0016 19.7649Z" fill="#662113"/>
</svg>
